<mxfile host="app.diagrams.net" agent="Mozilla/5.0 (Windows NT 10.0; Win64; x64) AppleWebKit/537.36 (KHTML, like Gecko) Chrome/129.0.0.0 Safari/537.36" version="24.7.17">
  <diagram name="Strona-1" id="08yl5DYZXxRefjPKrMa3">
    <mxGraphModel dx="989" dy="509" grid="1" gridSize="5" guides="1" tooltips="1" connect="1" arrows="1" fold="1" page="1" pageScale="1" pageWidth="827" pageHeight="1169" math="0" shadow="0">
      <root>
        <mxCell id="0" />
        <mxCell id="1" parent="0" />
        <mxCell id="HhEpwgiFY-S1FEsXRywT-3" style="edgeStyle=orthogonalEdgeStyle;rounded=0;orthogonalLoop=1;jettySize=auto;html=1;exitX=1;exitY=0.5;exitDx=0;exitDy=0;" edge="1" parent="1" source="HhEpwgiFY-S1FEsXRywT-1" target="HhEpwgiFY-S1FEsXRywT-2">
          <mxGeometry relative="1" as="geometry" />
        </mxCell>
        <mxCell id="HhEpwgiFY-S1FEsXRywT-1" value="czytnik kart" style="rounded=0;whiteSpace=wrap;html=1;" vertex="1" parent="1">
          <mxGeometry x="40" y="80" width="120" height="60" as="geometry" />
        </mxCell>
        <mxCell id="HhEpwgiFY-S1FEsXRywT-2" value="weryfikacja karty" style="ellipse;whiteSpace=wrap;html=1;aspect=fixed;" vertex="1" parent="1">
          <mxGeometry x="240" y="70" width="80" height="80" as="geometry" />
        </mxCell>
        <mxCell id="HhEpwgiFY-S1FEsXRywT-4" value="dane karty" style="text;html=1;align=center;verticalAlign=middle;whiteSpace=wrap;rounded=0;" vertex="1" parent="1">
          <mxGeometry x="170" y="80" width="60" height="30" as="geometry" />
        </mxCell>
        <mxCell id="HhEpwgiFY-S1FEsXRywT-5" value="bank" style="text;html=1;align=center;verticalAlign=middle;whiteSpace=wrap;rounded=0;" vertex="1" parent="1">
          <mxGeometry x="445" y="95" width="60" height="30" as="geometry" />
        </mxCell>
        <mxCell id="HhEpwgiFY-S1FEsXRywT-6" value="" style="endArrow=none;html=1;rounded=0;" edge="1" parent="1">
          <mxGeometry width="50" height="50" relative="1" as="geometry">
            <mxPoint x="445" y="94.31" as="sourcePoint" />
            <mxPoint x="510" y="94.31" as="targetPoint" />
          </mxGeometry>
        </mxCell>
        <mxCell id="HhEpwgiFY-S1FEsXRywT-7" value="" style="endArrow=none;html=1;rounded=0;" edge="1" parent="1">
          <mxGeometry width="50" height="50" relative="1" as="geometry">
            <mxPoint x="445" y="90" as="sourcePoint" />
            <mxPoint x="510" y="90" as="targetPoint" />
          </mxGeometry>
        </mxCell>
        <mxCell id="HhEpwgiFY-S1FEsXRywT-8" value="" style="endArrow=none;html=1;rounded=0;" edge="1" parent="1">
          <mxGeometry width="50" height="50" relative="1" as="geometry">
            <mxPoint x="445" y="125" as="sourcePoint" />
            <mxPoint x="510" y="125" as="targetPoint" />
          </mxGeometry>
        </mxCell>
        <mxCell id="HhEpwgiFY-S1FEsXRywT-9" value="" style="endArrow=none;html=1;rounded=0;" edge="1" parent="1">
          <mxGeometry width="50" height="50" relative="1" as="geometry">
            <mxPoint x="445" y="130" as="sourcePoint" />
            <mxPoint x="510" y="130" as="targetPoint" />
          </mxGeometry>
        </mxCell>
        <mxCell id="HhEpwgiFY-S1FEsXRywT-10" value="" style="endArrow=classic;html=1;rounded=0;exitX=1;exitY=0.5;exitDx=0;exitDy=0;entryX=0;entryY=0.5;entryDx=0;entryDy=0;" edge="1" parent="1" source="HhEpwgiFY-S1FEsXRywT-2" target="HhEpwgiFY-S1FEsXRywT-5">
          <mxGeometry width="50" height="50" relative="1" as="geometry">
            <mxPoint x="480" y="250" as="sourcePoint" />
            <mxPoint x="530" y="200" as="targetPoint" />
          </mxGeometry>
        </mxCell>
        <mxCell id="HhEpwgiFY-S1FEsXRywT-11" value="sprawdzanie danych klienta" style="text;html=1;align=center;verticalAlign=middle;whiteSpace=wrap;rounded=0;" vertex="1" parent="1">
          <mxGeometry x="354" y="70" width="60" height="30" as="geometry" />
        </mxCell>
        <mxCell id="HhEpwgiFY-S1FEsXRywT-12" value="" style="endArrow=classic;html=1;rounded=0;exitX=1;exitY=0.5;exitDx=0;exitDy=0;" edge="1" parent="1" source="HhEpwgiFY-S1FEsXRywT-5">
          <mxGeometry width="50" height="50" relative="1" as="geometry">
            <mxPoint x="520" y="110" as="sourcePoint" />
            <mxPoint x="585" y="110" as="targetPoint" />
          </mxGeometry>
        </mxCell>
        <mxCell id="HhEpwgiFY-S1FEsXRywT-13" value="zwróć kartę" style="ellipse;whiteSpace=wrap;html=1;aspect=fixed;" vertex="1" parent="1">
          <mxGeometry x="585" y="70" width="80" height="80" as="geometry" />
        </mxCell>
        <mxCell id="HhEpwgiFY-S1FEsXRywT-14" value="zapytaj o rodzaj operacji" style="ellipse;whiteSpace=wrap;html=1;aspect=fixed;" vertex="1" parent="1">
          <mxGeometry x="440" y="175" width="80" height="80" as="geometry" />
        </mxCell>
        <mxCell id="HhEpwgiFY-S1FEsXRywT-15" value="" style="endArrow=classic;html=1;rounded=0;entryX=0.5;entryY=0;entryDx=0;entryDy=0;" edge="1" parent="1" target="HhEpwgiFY-S1FEsXRywT-14">
          <mxGeometry width="50" height="50" relative="1" as="geometry">
            <mxPoint x="480" y="130" as="sourcePoint" />
            <mxPoint x="530" y="200" as="targetPoint" />
          </mxGeometry>
        </mxCell>
        <mxCell id="HhEpwgiFY-S1FEsXRywT-16" value="wykonaj operacje" style="ellipse;whiteSpace=wrap;html=1;aspect=fixed;" vertex="1" parent="1">
          <mxGeometry x="585" y="175" width="80" height="80" as="geometry" />
        </mxCell>
        <mxCell id="HhEpwgiFY-S1FEsXRywT-17" value="" style="endArrow=classic;html=1;rounded=0;entryX=0;entryY=0;entryDx=0;entryDy=0;exitX=0.938;exitY=0.321;exitDx=0;exitDy=0;exitPerimeter=0;" edge="1" parent="1" source="HhEpwgiFY-S1FEsXRywT-14" target="HhEpwgiFY-S1FEsXRywT-16">
          <mxGeometry width="50" height="50" relative="1" as="geometry">
            <mxPoint x="540" y="280" as="sourcePoint" />
            <mxPoint x="530" y="200" as="targetPoint" />
            <Array as="points">
              <mxPoint x="545" y="187" />
            </Array>
          </mxGeometry>
        </mxCell>
        <mxCell id="HhEpwgiFY-S1FEsXRywT-18" value="numer operacji" style="text;html=1;align=center;verticalAlign=middle;whiteSpace=wrap;rounded=0;" vertex="1" parent="1">
          <mxGeometry x="525" y="155" width="60" height="30" as="geometry" />
        </mxCell>
        <mxCell id="HhEpwgiFY-S1FEsXRywT-19" value="błąd" style="text;html=1;align=center;verticalAlign=middle;whiteSpace=wrap;rounded=0;" vertex="1" parent="1">
          <mxGeometry x="515" y="85" width="60" height="30" as="geometry" />
        </mxCell>
        <mxCell id="HhEpwgiFY-S1FEsXRywT-20" value="" style="endArrow=classic;html=1;rounded=0;exitX=1;exitY=1;exitDx=0;exitDy=0;entryX=0;entryY=0.5;entryDx=0;entryDy=0;" edge="1" parent="1" source="HhEpwgiFY-S1FEsXRywT-14" target="HhEpwgiFY-S1FEsXRywT-16">
          <mxGeometry width="50" height="50" relative="1" as="geometry">
            <mxPoint x="480" y="250" as="sourcePoint" />
            <mxPoint x="530" y="200" as="targetPoint" />
            <Array as="points">
              <mxPoint x="560" y="243" />
            </Array>
          </mxGeometry>
        </mxCell>
        <mxCell id="HhEpwgiFY-S1FEsXRywT-21" value="rodzaj operacji" style="text;html=1;align=center;verticalAlign=middle;whiteSpace=wrap;rounded=0;" vertex="1" parent="1">
          <mxGeometry x="515" y="205" width="60" height="30" as="geometry" />
        </mxCell>
        <mxCell id="HhEpwgiFY-S1FEsXRywT-22" value="" style="endArrow=classic;html=1;rounded=0;exitX=0.5;exitY=0;exitDx=0;exitDy=0;entryX=0.5;entryY=1;entryDx=0;entryDy=0;" edge="1" parent="1" source="HhEpwgiFY-S1FEsXRywT-16" target="HhEpwgiFY-S1FEsXRywT-13">
          <mxGeometry width="50" height="50" relative="1" as="geometry">
            <mxPoint x="480" y="250" as="sourcePoint" />
            <mxPoint x="530" y="200" as="targetPoint" />
          </mxGeometry>
        </mxCell>
        <mxCell id="HhEpwgiFY-S1FEsXRywT-23" value="status opracji" style="text;html=1;align=center;verticalAlign=middle;whiteSpace=wrap;rounded=0;" vertex="1" parent="1">
          <mxGeometry x="630" y="145" width="60" height="30" as="geometry" />
        </mxCell>
        <mxCell id="HhEpwgiFY-S1FEsXRywT-24" value="logi" style="text;html=1;align=center;verticalAlign=middle;whiteSpace=wrap;rounded=0;" vertex="1" parent="1">
          <mxGeometry x="325" y="199.31" width="60" height="30" as="geometry" />
        </mxCell>
        <mxCell id="HhEpwgiFY-S1FEsXRywT-25" value="" style="endArrow=none;html=1;rounded=0;" edge="1" parent="1">
          <mxGeometry width="50" height="50" relative="1" as="geometry">
            <mxPoint x="325" y="198.62" as="sourcePoint" />
            <mxPoint x="390" y="198.62" as="targetPoint" />
          </mxGeometry>
        </mxCell>
        <mxCell id="HhEpwgiFY-S1FEsXRywT-26" value="" style="endArrow=none;html=1;rounded=0;" edge="1" parent="1">
          <mxGeometry width="50" height="50" relative="1" as="geometry">
            <mxPoint x="325" y="194.31" as="sourcePoint" />
            <mxPoint x="390" y="194.31" as="targetPoint" />
          </mxGeometry>
        </mxCell>
        <mxCell id="HhEpwgiFY-S1FEsXRywT-27" value="" style="endArrow=none;html=1;rounded=0;" edge="1" parent="1">
          <mxGeometry width="50" height="50" relative="1" as="geometry">
            <mxPoint x="325" y="229.31" as="sourcePoint" />
            <mxPoint x="390" y="229.31" as="targetPoint" />
          </mxGeometry>
        </mxCell>
        <mxCell id="HhEpwgiFY-S1FEsXRywT-28" value="" style="endArrow=none;html=1;rounded=0;" edge="1" parent="1">
          <mxGeometry width="50" height="50" relative="1" as="geometry">
            <mxPoint x="325" y="234.31" as="sourcePoint" />
            <mxPoint x="390" y="234.31" as="targetPoint" />
          </mxGeometry>
        </mxCell>
        <mxCell id="HhEpwgiFY-S1FEsXRywT-29" value="" style="endArrow=classic;html=1;rounded=0;exitX=0;exitY=0.5;exitDx=0;exitDy=0;entryX=1;entryY=0.5;entryDx=0;entryDy=0;" edge="1" parent="1" source="HhEpwgiFY-S1FEsXRywT-14" target="HhEpwgiFY-S1FEsXRywT-24">
          <mxGeometry width="50" height="50" relative="1" as="geometry">
            <mxPoint x="480" y="250" as="sourcePoint" />
            <mxPoint x="530" y="200" as="targetPoint" />
          </mxGeometry>
        </mxCell>
        <mxCell id="HhEpwgiFY-S1FEsXRywT-30" value="dane" style="text;html=1;align=center;verticalAlign=middle;whiteSpace=wrap;rounded=0;" vertex="1" parent="1">
          <mxGeometry x="384" y="190" width="60" height="30" as="geometry" />
        </mxCell>
        <mxCell id="HhEpwgiFY-S1FEsXRywT-31" value="" style="endArrow=classic;html=1;rounded=0;exitX=0.706;exitY=0.978;exitDx=0;exitDy=0;exitPerimeter=0;entryX=0;entryY=0.5;entryDx=0;entryDy=0;" edge="1" parent="1" source="HhEpwgiFY-S1FEsXRywT-2" target="HhEpwgiFY-S1FEsXRywT-24">
          <mxGeometry width="50" height="50" relative="1" as="geometry">
            <mxPoint x="480" y="250" as="sourcePoint" />
            <mxPoint x="530" y="200" as="targetPoint" />
          </mxGeometry>
        </mxCell>
        <mxCell id="HhEpwgiFY-S1FEsXRywT-32" value="dane karty" style="text;html=1;align=center;verticalAlign=middle;whiteSpace=wrap;rounded=0;" vertex="1" parent="1">
          <mxGeometry x="310" y="155" width="60" height="30" as="geometry" />
        </mxCell>
        <mxCell id="HhEpwgiFY-S1FEsXRywT-33" value="klawiatura" style="rounded=0;whiteSpace=wrap;html=1;" vertex="1" parent="1">
          <mxGeometry x="40" y="250" width="120" height="60" as="geometry" />
        </mxCell>
        <mxCell id="HhEpwgiFY-S1FEsXRywT-34" value="zapytaj o PIN" style="ellipse;whiteSpace=wrap;html=1;aspect=fixed;" vertex="1" parent="1">
          <mxGeometry x="240" y="240" width="80" height="80" as="geometry" />
        </mxCell>
        <mxCell id="HhEpwgiFY-S1FEsXRywT-35" value="" style="endArrow=classic;html=1;rounded=0;exitX=1;exitY=0.5;exitDx=0;exitDy=0;entryX=0;entryY=0.5;entryDx=0;entryDy=0;" edge="1" parent="1" source="HhEpwgiFY-S1FEsXRywT-33" target="HhEpwgiFY-S1FEsXRywT-34">
          <mxGeometry width="50" height="50" relative="1" as="geometry">
            <mxPoint x="480" y="250" as="sourcePoint" />
            <mxPoint x="530" y="200" as="targetPoint" />
          </mxGeometry>
        </mxCell>
        <mxCell id="HhEpwgiFY-S1FEsXRywT-36" value="PIN" style="text;html=1;align=center;verticalAlign=middle;whiteSpace=wrap;rounded=0;" vertex="1" parent="1">
          <mxGeometry x="170" y="255" width="60" height="30" as="geometry" />
        </mxCell>
        <mxCell id="HhEpwgiFY-S1FEsXRywT-37" value="" style="endArrow=classic;html=1;rounded=0;exitX=0.5;exitY=0;exitDx=0;exitDy=0;entryX=0.5;entryY=1;entryDx=0;entryDy=0;" edge="1" parent="1" source="HhEpwgiFY-S1FEsXRywT-34" target="HhEpwgiFY-S1FEsXRywT-2">
          <mxGeometry width="50" height="50" relative="1" as="geometry">
            <mxPoint x="480" y="250" as="sourcePoint" />
            <mxPoint x="530" y="200" as="targetPoint" />
          </mxGeometry>
        </mxCell>
        <mxCell id="HhEpwgiFY-S1FEsXRywT-39" value="numer PIN" style="text;html=1;align=center;verticalAlign=middle;whiteSpace=wrap;rounded=0;" vertex="1" parent="1">
          <mxGeometry x="235" y="185" width="50" height="30" as="geometry" />
        </mxCell>
        <mxCell id="HhEpwgiFY-S1FEsXRywT-41" value="klawiatura" style="rounded=0;whiteSpace=wrap;html=1;" vertex="1" parent="1">
          <mxGeometry x="420" y="295" width="120" height="60" as="geometry" />
        </mxCell>
        <mxCell id="HhEpwgiFY-S1FEsXRywT-42" value="" style="endArrow=classic;html=1;rounded=0;exitX=0.5;exitY=0;exitDx=0;exitDy=0;entryX=0.5;entryY=1;entryDx=0;entryDy=0;" edge="1" parent="1" source="HhEpwgiFY-S1FEsXRywT-41" target="HhEpwgiFY-S1FEsXRywT-14">
          <mxGeometry width="50" height="50" relative="1" as="geometry">
            <mxPoint x="480" y="250" as="sourcePoint" />
            <mxPoint x="530" y="200" as="targetPoint" />
          </mxGeometry>
        </mxCell>
        <mxCell id="HhEpwgiFY-S1FEsXRywT-43" value="rodzaj operacji" style="text;html=1;align=center;verticalAlign=middle;whiteSpace=wrap;rounded=0;" vertex="1" parent="1">
          <mxGeometry x="475" y="260" width="60" height="30" as="geometry" />
        </mxCell>
        <mxCell id="HhEpwgiFY-S1FEsXRywT-44" value="ekran" style="rounded=0;whiteSpace=wrap;html=1;" vertex="1" parent="1">
          <mxGeometry x="220" y="360" width="120" height="60" as="geometry" />
        </mxCell>
        <mxCell id="HhEpwgiFY-S1FEsXRywT-45" value="" style="endArrow=classic;html=1;rounded=0;exitX=0.5;exitY=1;exitDx=0;exitDy=0;entryX=0.5;entryY=0;entryDx=0;entryDy=0;" edge="1" parent="1" source="HhEpwgiFY-S1FEsXRywT-34" target="HhEpwgiFY-S1FEsXRywT-44">
          <mxGeometry width="50" height="50" relative="1" as="geometry">
            <mxPoint x="480" y="250" as="sourcePoint" />
            <mxPoint x="530" y="200" as="targetPoint" />
          </mxGeometry>
        </mxCell>
        <mxCell id="HhEpwgiFY-S1FEsXRywT-46" value="komunikat" style="text;html=1;align=center;verticalAlign=middle;whiteSpace=wrap;rounded=0;" vertex="1" parent="1">
          <mxGeometry x="215" y="320" width="60" height="30" as="geometry" />
        </mxCell>
        <mxCell id="HhEpwgiFY-S1FEsXRywT-47" value="" style="endArrow=classic;html=1;rounded=0;exitX=1;exitY=0.5;exitDx=0;exitDy=0;entryX=1;entryY=0.5;entryDx=0;entryDy=0;" edge="1" parent="1" source="HhEpwgiFY-S1FEsXRywT-13" target="HhEpwgiFY-S1FEsXRywT-44">
          <mxGeometry width="50" height="50" relative="1" as="geometry">
            <mxPoint x="480" y="250" as="sourcePoint" />
            <mxPoint x="530" y="200" as="targetPoint" />
            <Array as="points">
              <mxPoint x="700" y="110" />
              <mxPoint x="695" y="390" />
            </Array>
          </mxGeometry>
        </mxCell>
        <mxCell id="HhEpwgiFY-S1FEsXRywT-49" value="komunikat" style="text;html=1;align=center;verticalAlign=middle;whiteSpace=wrap;rounded=0;" vertex="1" parent="1">
          <mxGeometry x="480" y="365" width="60" height="30" as="geometry" />
        </mxCell>
        <mxCell id="HhEpwgiFY-S1FEsXRywT-50" value="" style="endArrow=classic;html=1;rounded=0;exitX=0;exitY=1;exitDx=0;exitDy=0;entryX=0.75;entryY=0;entryDx=0;entryDy=0;" edge="1" parent="1" source="HhEpwgiFY-S1FEsXRywT-14" target="HhEpwgiFY-S1FEsXRywT-44">
          <mxGeometry width="50" height="50" relative="1" as="geometry">
            <mxPoint x="480" y="250" as="sourcePoint" />
            <mxPoint x="530" y="200" as="targetPoint" />
          </mxGeometry>
        </mxCell>
        <mxCell id="HhEpwgiFY-S1FEsXRywT-51" value="komunikat" style="text;html=1;align=center;verticalAlign=middle;whiteSpace=wrap;rounded=0;" vertex="1" parent="1">
          <mxGeometry x="345" y="260" width="60" height="30" as="geometry" />
        </mxCell>
      </root>
    </mxGraphModel>
  </diagram>
</mxfile>
